<?xml version="1.0" standalone="no"?><!DOCTYPE svg PUBLIC "-//W3C//DTD SVG 1.1//EN" "http://www.w3.org/Graphics/SVG/1.1/DTD/svg11.dtd"><svg t="1645340395428" class="icon" viewBox="0 0 1024 1024" version="1.1" xmlns="http://www.w3.org/2000/svg" p-id="1415" xmlns:xlink="http://www.w3.org/1999/xlink" width="200" height="200"><defs><style type="text/css"></style></defs><path d="M815.786667 162.56H208.213333A101.973333 101.973333 0 0 0 106.666667 264.106667v351.146666a101.973333 101.973333 0 0 0 101.546666 101.546667h119.893334a21.333333 21.333333 0 0 1 13.653333 5.12l32 27.306667a21.333333 21.333333 0 0 0 27.733333-32.426667l-32-27.306667a64 64 0 0 0-42.666666-15.36H208.213333a59.306667 59.306667 0 0 1-58.88-58.453333V264.106667a59.306667 59.306667 0 0 1 58.88-58.88h607.573334a59.306667 59.306667 0 0 1 58.88 58.88v351.146666a59.306667 59.306667 0 0 1-58.88 58.88h-119.893334a64 64 0 0 0-42.666666 15.36l-128 109.226667a21.333333 21.333333 0 0 1-27.733334 0 21.333333 21.333333 0 1 0-27.733333 32.426667 64 64 0 0 0 82.773333 0l128-109.226667a21.333333 21.333333 0 0 1 13.653334-5.12h119.893333a101.973333 101.973333 0 0 0 101.546667-101.546667V264.106667a101.973333 101.973333 0 0 0-99.84-101.546667z" p-id="1416"></path><path d="M704.426667 440.32a191.146667 191.146667 0 0 0-55.466667-134.826667 192 192 0 0 0-272.213333 270.506667 192 192 0 0 0 327.253333-136.106667zM512 589.653333a148.053333 148.053333 0 0 1-88.746667-29.866666l208.213334-208.64a148.053333 148.053333 0 0 1 29.866666 88.746666 149.333333 149.333333 0 0 1-149.333333 149.76z m0-298.666666a148.053333 148.053333 0 0 1 89.173333 30.293333l-207.786666 208.213333a148.053333 148.053333 0 0 1-30.293334-89.173333A149.333333 149.333333 0 0 1 512 290.986667z" p-id="1417"></path></svg>