<?xml version="1.0" standalone="no"?><!DOCTYPE svg PUBLIC "-//W3C//DTD SVG 1.1//EN" "http://www.w3.org/Graphics/SVG/1.1/DTD/svg11.dtd"><svg t="1645340392581" class="icon" viewBox="0 0 1024 1024" version="1.1" xmlns="http://www.w3.org/2000/svg" p-id="1258" xmlns:xlink="http://www.w3.org/1999/xlink" width="200" height="200"><defs><style type="text/css"></style></defs><path d="M815.786667 170.666667H208.213333A101.973333 101.973333 0 0 0 106.666667 271.786667v351.146666A101.973333 101.973333 0 0 0 208.213333 725.333333h119.893334a21.333333 21.333333 0 0 1 13.226666 4.266667l32 27.306667a21.333333 21.333333 0 0 0 28.16-31.573334l-32-27.306666a64 64 0 0 0-42.666666-15.36H208.213333a59.306667 59.306667 0 0 1-58.88-59.733334V271.786667A59.306667 59.306667 0 0 1 208.213333 213.333333h607.573334a59.306667 59.306667 0 0 1 58.88 58.453334v351.146666a59.306667 59.306667 0 0 1-58.88 59.733334h-119.893334a64 64 0 0 0-42.666666 15.36l-128 109.226666a21.333333 21.333333 0 0 1-27.733334 0 21.333333 21.333333 0 0 0-27.733333 32.426667 63.573333 63.573333 0 0 0 82.773333 0l128-109.226667a21.333333 21.333333 0 0 1 13.653334-5.12h119.893333a101.973333 101.973333 0 0 0 103.253333-102.4V271.786667A101.973333 101.973333 0 0 0 815.786667 170.666667z" p-id="1259"></path><path d="M512 450.986667m-42.666667 0a42.666667 42.666667 0 1 0 85.333334 0 42.666667 42.666667 0 1 0-85.333334 0Z" p-id="1260"></path><path d="M298.666667 450.986667m-42.666667 0a42.666667 42.666667 0 1 0 85.333333 0 42.666667 42.666667 0 1 0-85.333333 0Z" p-id="1261"></path><path d="M725.333333 450.986667m-42.666666 0a42.666667 42.666667 0 1 0 85.333333 0 42.666667 42.666667 0 1 0-85.333333 0Z" p-id="1262"></path></svg>